M48
;Layer_Color=9474304
;FILE_FORMAT=2:5
INCH,LZ
;TYPE=PLATED
T1F00S00C0.02800
T2F00S00C0.03500
T3F00S00C0.03800
T4F00S00C0.12500
%
T01
X0221Y05795
Y05895
Y06015
Y06115
Y06235
X02775Y0623
Y0611
Y0601
Y0589
Y0579
Y0633
Y06455
Y06555
X02785Y06675
Y06775
X0221
Y06675
Y06555
Y06455
Y06335
T02
X0235Y05845
Y05945
Y06045
Y06145
Y06245
X0265
Y06145
Y06045
Y05945
Y05845
Y06345
Y06445
Y06545
Y06645
Y06745
X0271Y06895
X0281
X0259
X0249
X0239
X0229
X0219
X0235Y06745
Y06645
Y06545
Y06445
Y06345
T03
X025Y029
Y03025
Y0338
Y03745
Y0411
Y0448
Y04845
Y0521
Y05575
T04
X0275Y03175
X0225Y05375
M30
