G04 Layer_Color=16711935*
%FSLAX25Y25*%
%MOIN*%
G70*
G01*
G75*
%ADD10C,0.01000*%
%ADD35C,0.00600*%
D10*
X287000Y272000D02*
Y281500D01*
X209500Y272000D02*
Y281500D01*
X248250Y273000D02*
X287000D01*
X209500D02*
X248250D01*
X281000Y275000D02*
X287000Y273000D01*
X281000Y271000D02*
X287000Y273000D01*
X209500D02*
X215500Y271000D01*
X209500Y273000D02*
X215500Y275000D01*
X159000Y708000D02*
X208000D01*
X159000Y283000D02*
X208000D01*
X160000Y530489D02*
Y708000D01*
Y283000D02*
Y457311D01*
X158000Y702000D02*
X160000Y708000D01*
X162000Y702000D01*
X160000Y283000D02*
X162000Y289000D01*
X158000D02*
X160000Y283000D01*
X260500Y708000D02*
X287000D01*
X209500D02*
X220500D01*
X209500Y283000D02*
X287000D01*
X209500D02*
Y708000D01*
X287000Y283000D02*
Y708000D01*
X220500D02*
X260500D01*
D35*
X293500Y274998D02*
X297499D01*
Y273998D01*
X293500Y270000D01*
Y269000D01*
X299498Y274998D02*
X303497D01*
Y273998D01*
X299498Y270000D01*
Y269000D01*
X309495Y274998D02*
X305496D01*
Y271999D01*
X307495Y272999D01*
X308495D01*
X309495Y271999D01*
Y270000D01*
X308495Y269000D01*
X306496D01*
X305496Y270000D01*
X311494Y269000D02*
Y270000D01*
X312494D01*
Y269000D01*
X311494D01*
X316493Y273998D02*
X317492Y274998D01*
X319492D01*
X320491Y273998D01*
Y270000D01*
X319492Y269000D01*
X317492D01*
X316493Y270000D01*
Y273998D01*
X322491D02*
X323490Y274998D01*
X325490D01*
X326489Y273998D01*
Y270000D01*
X325490Y269000D01*
X323490D01*
X322491Y270000D01*
Y273998D01*
X336486Y269000D02*
X334487Y270999D01*
Y272999D01*
X336486Y274998D01*
X339485Y269000D02*
Y272999D01*
X340485D01*
X341484Y271999D01*
Y269000D01*
Y271999D01*
X342484Y272999D01*
X343484Y271999D01*
Y269000D01*
X345483D02*
X347482D01*
X346483D01*
Y272999D01*
X345483D01*
X350482Y269000D02*
X352481D01*
X351481D01*
Y274998D01*
X350482D01*
X355480Y269000D02*
X357479Y270999D01*
Y272999D01*
X355480Y274998D01*
X163599Y461910D02*
X157601D01*
X160600Y458911D01*
Y462910D01*
X163599Y468908D02*
Y464909D01*
X159600Y468908D01*
X158601D01*
X157601Y467908D01*
Y465909D01*
X158601Y464909D01*
X157601Y474906D02*
Y470907D01*
X160600D01*
X159600Y472907D01*
Y473907D01*
X160600Y474906D01*
X162599D01*
X163599Y473907D01*
Y471907D01*
X162599Y470907D01*
X158601Y476905D02*
X157601Y477905D01*
Y479905D01*
X158601Y480904D01*
X162599D01*
X163599Y479905D01*
Y477905D01*
X162599Y476905D01*
X158601D01*
X163599Y482904D02*
X162599D01*
Y483903D01*
X163599D01*
Y482904D01*
X158601Y487902D02*
X157601Y488902D01*
Y490901D01*
X158601Y491901D01*
X162599D01*
X163599Y490901D01*
Y488902D01*
X162599Y487902D01*
X158601D01*
Y493900D02*
X157601Y494900D01*
Y496899D01*
X158601Y497899D01*
X162599D01*
X163599Y496899D01*
Y494900D01*
X162599Y493900D01*
X158601D01*
X163599Y507896D02*
X161600Y505896D01*
X159600D01*
X157601Y507896D01*
X163599Y510894D02*
X159600D01*
Y511894D01*
X160600Y512894D01*
X163599D01*
X160600D01*
X159600Y513894D01*
X160600Y514893D01*
X163599D01*
Y516893D02*
Y518892D01*
Y517892D01*
X159600D01*
Y516893D01*
X163599Y521891D02*
Y523890D01*
Y522891D01*
X157601D01*
Y521891D01*
X163599Y526889D02*
X161600Y528889D01*
X159600D01*
X157601Y526889D01*
M02*
