G04 Layer_Color=255*
%FSLAX25Y25*%
%MOIN*%
G70*
G01*
G75*
%ADD10C,0.01000*%
G04:AMPARAMS|DCode=12|XSize=250mil|YSize=60mil|CornerRadius=15mil|HoleSize=0mil|Usage=FLASHONLY|Rotation=180.000|XOffset=0mil|YOffset=0mil|HoleType=Round|Shape=RoundedRectangle|*
%AMROUNDEDRECTD12*
21,1,0.25000,0.03000,0,0,180.0*
21,1,0.22000,0.06000,0,0,180.0*
1,1,0.03000,-0.11000,0.01500*
1,1,0.03000,0.11000,0.01500*
1,1,0.03000,0.11000,-0.01500*
1,1,0.03000,-0.11000,-0.01500*
%
%ADD12ROUNDEDRECTD12*%
%ADD13C,0.05000*%
G04:AMPARAMS|DCode=14|XSize=55.12mil|YSize=55.12mil|CornerRadius=6.89mil|HoleSize=0mil|Usage=FLASHONLY|Rotation=0.000|XOffset=0mil|YOffset=0mil|HoleType=Round|Shape=RoundedRectangle|*
%AMROUNDEDRECTD14*
21,1,0.05512,0.04134,0,0,0.0*
21,1,0.04134,0.05512,0,0,0.0*
1,1,0.01378,0.02067,-0.02067*
1,1,0.01378,-0.02067,-0.02067*
1,1,0.01378,-0.02067,0.02067*
1,1,0.01378,0.02067,0.02067*
%
%ADD14ROUNDEDRECTD14*%
%ADD15C,0.04724*%
%ADD16C,0.14300*%
%ADD17C,0.05905*%
%ADD18R,0.05905X0.05905*%
%ADD19C,0.05905*%
%ADD20R,0.05905X0.05905*%
D10*
X210000Y698500D02*
X290000D01*
Y283000D02*
Y698500D01*
X210000Y283000D02*
Y698500D01*
Y283000D02*
X290000D01*
D12*
X250000Y290000D02*
D03*
Y302500D02*
D03*
Y338000D02*
D03*
Y374500D02*
D03*
Y411000D02*
D03*
Y448000D02*
D03*
Y484500D02*
D03*
Y521000D02*
D03*
Y557500D02*
D03*
D13*
X281000Y689500D02*
D03*
D14*
X271000D02*
D03*
D15*
X277500Y579000D02*
D03*
Y589000D02*
D03*
Y655500D02*
D03*
Y645500D02*
D03*
Y633000D02*
D03*
Y623000D02*
D03*
Y601000D02*
D03*
Y611000D02*
D03*
X221000Y601500D02*
D03*
Y611500D02*
D03*
Y633500D02*
D03*
Y623500D02*
D03*
Y655500D02*
D03*
Y645500D02*
D03*
Y579500D02*
D03*
Y589500D02*
D03*
Y667500D02*
D03*
Y677500D02*
D03*
X278500D02*
D03*
Y667500D02*
D03*
D16*
X275000Y317500D02*
D03*
X225000Y537500D02*
D03*
D17*
X219000Y689500D02*
D03*
X229000D02*
D03*
X239000D02*
D03*
X249000D02*
D03*
D18*
X259000D02*
D03*
D19*
X265000Y604500D02*
D03*
Y614500D02*
D03*
Y624500D02*
D03*
Y634500D02*
D03*
Y644500D02*
D03*
Y654500D02*
D03*
Y664500D02*
D03*
Y674500D02*
D03*
X235000Y664500D02*
D03*
Y654500D02*
D03*
Y644500D02*
D03*
Y634500D02*
D03*
Y624500D02*
D03*
Y614500D02*
D03*
Y604500D02*
D03*
X265000Y594500D02*
D03*
X235000D02*
D03*
X265000Y584500D02*
D03*
X235000D02*
D03*
D20*
Y674500D02*
D03*
M02*
