G04 Layer_Color=8388736*
%FSLAX25Y25*%
%MOIN*%
G70*
G01*
G75*
%ADD20C,0.14300*%
%ADD26C,0.06750*%
%ADD27R,0.06750X0.06750*%
G04:AMPARAMS|DCode=28|XSize=63.12mil|YSize=63.12mil|CornerRadius=10.89mil|HoleSize=0mil|Usage=FLASHONLY|Rotation=270.000|XOffset=0mil|YOffset=0mil|HoleType=Round|Shape=RoundedRectangle|*
%AMROUNDEDRECTD28*
21,1,0.06312,0.04134,0,0,270.0*
21,1,0.04134,0.06312,0,0,270.0*
1,1,0.02178,-0.02067,-0.02067*
1,1,0.02178,-0.02067,0.02067*
1,1,0.02178,0.02067,0.02067*
1,1,0.02178,0.02067,-0.02067*
%
%ADD28ROUNDEDRECTD28*%
%ADD29C,0.05800*%
%ADD30C,0.05524*%
%ADD31C,0.06706*%
%ADD32R,0.06706X0.06706*%
%ADD33C,0.06312*%
G04:AMPARAMS|DCode=34|XSize=258mil|YSize=68mil|CornerRadius=19mil|HoleSize=0mil|Usage=FLASHONLY|Rotation=0.000|XOffset=0mil|YOffset=0mil|HoleType=Round|Shape=RoundedRectangle|*
%AMROUNDEDRECTD34*
21,1,0.25800,0.03000,0,0,0.0*
21,1,0.22000,0.06800,0,0,0.0*
1,1,0.03800,0.11000,-0.01500*
1,1,0.03800,-0.11000,-0.01500*
1,1,0.03800,-0.11000,0.01500*
1,1,0.03800,0.11000,0.01500*
%
%ADD34ROUNDEDRECTD34*%
D20*
X250000Y540000D02*
D03*
Y320000D02*
D03*
D26*
X278500Y700500D02*
D03*
X268500D02*
D03*
X258500D02*
D03*
D27*
X248500D02*
D03*
D28*
X236500D02*
D03*
X220500Y669000D02*
D03*
D29*
X236500Y690500D02*
D03*
D30*
X280000Y641500D02*
D03*
Y634000D02*
D03*
X217000Y641500D02*
D03*
X224500D02*
D03*
X217000Y581000D02*
D03*
X224500D02*
D03*
X217000Y611000D02*
D03*
X224500D02*
D03*
X217000Y621000D02*
D03*
X224500D02*
D03*
X217000Y631000D02*
D03*
X224500D02*
D03*
X217000Y601000D02*
D03*
X224500D02*
D03*
X217000Y591000D02*
D03*
X224500D02*
D03*
Y652000D02*
D03*
Y659500D02*
D03*
X279500Y678000D02*
D03*
Y670500D02*
D03*
X220500Y690500D02*
D03*
Y700500D02*
D03*
D31*
X267000Y604000D02*
D03*
Y614000D02*
D03*
Y624000D02*
D03*
Y634000D02*
D03*
Y644000D02*
D03*
Y654000D02*
D03*
Y664000D02*
D03*
Y674000D02*
D03*
X237000Y664000D02*
D03*
Y654000D02*
D03*
Y644000D02*
D03*
Y634000D02*
D03*
Y624000D02*
D03*
Y614000D02*
D03*
Y604000D02*
D03*
X267000Y594000D02*
D03*
X237000D02*
D03*
X267000Y584000D02*
D03*
X237000D02*
D03*
D32*
Y674000D02*
D03*
D33*
X220500Y679000D02*
D03*
D34*
X250000Y557500D02*
D03*
Y521000D02*
D03*
Y484500D02*
D03*
Y448000D02*
D03*
Y411000D02*
D03*
Y374500D02*
D03*
Y338000D02*
D03*
Y302500D02*
D03*
Y290000D02*
D03*
M02*
