M48
;Layer_Color=9474304
;FILE_FORMAT=2:5
INCH,LZ
;TYPE=PLATED
T1F00S00C0.02800
T2F00S00C0.03500
T3F00S00C0.03800
T4F00S00C0.04200
T5F00S00C0.12500
%
T01
X0217Y0581
X02245
Y0591
X0217
Y0601
X02245
Y0611
X0217
Y0621
X02245
Y0631
X0217
Y06415
X02245
Y0652
Y06595
X02205Y06905
Y07005
X02795Y0678
Y06705
X028Y06415
Y0634
T02
X0237Y0584
Y0594
Y0604
Y0614
Y0624
X0267
Y0614
Y0604
Y0594
Y0584
Y0634
Y0644
Y0654
Y0664
Y0674
X0237
Y0664
Y0654
Y0644
Y0634
X02205Y0669
Y0679
X02365Y06905
Y07005
T03
X025Y029
Y03025
Y0338
Y03745
Y0411
Y0448
Y04845
Y0521
Y05575
T04
X02485Y07005
X02585
X02685
X02785
T05
X025Y032
Y054
M30
