G04 Layer_Physical_Order=1*
G04 Layer_Color=255*
%FSLAX25Y25*%
%MOIN*%
G70*
G01*
G75*
%ADD10C,0.01000*%
%ADD11C,0.02500*%
G04:AMPARAMS|DCode=12|XSize=250mil|YSize=60mil|CornerRadius=15mil|HoleSize=0mil|Usage=FLASHONLY|Rotation=180.000|XOffset=0mil|YOffset=0mil|HoleType=Round|Shape=RoundedRectangle|*
%AMROUNDEDRECTD12*
21,1,0.25000,0.03000,0,0,180.0*
21,1,0.22000,0.06000,0,0,180.0*
1,1,0.03000,-0.11000,0.01500*
1,1,0.03000,0.11000,0.01500*
1,1,0.03000,0.11000,-0.01500*
1,1,0.03000,-0.11000,-0.01500*
%
%ADD12ROUNDEDRECTD12*%
%ADD13C,0.05000*%
G04:AMPARAMS|DCode=14|XSize=55.12mil|YSize=55.12mil|CornerRadius=6.89mil|HoleSize=0mil|Usage=FLASHONLY|Rotation=0.000|XOffset=0mil|YOffset=0mil|HoleType=Round|Shape=RoundedRectangle|*
%AMROUNDEDRECTD14*
21,1,0.05512,0.04134,0,0,0.0*
21,1,0.04134,0.05512,0,0,0.0*
1,1,0.01378,0.02067,-0.02067*
1,1,0.01378,-0.02067,-0.02067*
1,1,0.01378,-0.02067,0.02067*
1,1,0.01378,0.02067,0.02067*
%
%ADD14ROUNDEDRECTD14*%
%ADD15C,0.04724*%
%ADD16C,0.14300*%
%ADD17C,0.05905*%
%ADD18R,0.05905X0.05905*%
%ADD19C,0.05905*%
%ADD20R,0.05905X0.05905*%
D10*
X240500Y411000D02*
Y427800D01*
X250000Y302500D02*
X263500D01*
Y323600D01*
X273100Y333200D01*
Y571900D01*
X271600Y573400D02*
X273100Y571900D01*
X271600Y573400D02*
Y627900D01*
X265000Y634500D02*
X271600Y627900D01*
X240500Y411000D02*
X250000D01*
X233500Y434800D02*
X240500Y427800D01*
X233500Y434800D02*
Y546300D01*
X228947Y550853D02*
X233500Y546300D01*
X228947Y550853D02*
Y608447D01*
X235000Y614500D01*
Y594500D02*
X239253Y598753D01*
Y617500D01*
X238000Y618753D02*
X239253Y617500D01*
X229947Y618753D02*
X238000D01*
X224700Y624000D02*
X229947Y618753D01*
X224700Y624000D02*
Y673800D01*
X221000Y677500D02*
X224700Y673800D01*
X230747Y590247D02*
X235000Y594500D01*
X230747Y562753D02*
Y590247D01*
Y562753D02*
X236000Y557500D01*
X250000D01*
X244600Y693900D02*
X249000Y689500D01*
X236000Y693900D02*
X244600D01*
X234700Y692600D02*
X236000Y693900D01*
X234700Y683400D02*
Y692600D01*
Y683400D02*
X243204Y674896D01*
Y592704D02*
Y674896D01*
X235000Y584500D02*
X243204Y592704D01*
X273800Y585300D02*
X277500Y589000D01*
X273800Y575200D02*
Y585300D01*
Y575200D02*
X279400Y569600D01*
Y344800D02*
Y569600D01*
Y344800D02*
X283500Y340700D01*
Y296000D02*
Y340700D01*
X277500Y290000D02*
X283500Y296000D01*
X250000Y290000D02*
X277500D01*
X250000Y374500D02*
Y393000D01*
X269300Y412300D01*
Y610200D01*
X265000Y614500D02*
X269300Y610200D01*
X229000Y650500D02*
X235000Y644500D01*
X229000Y650500D02*
Y689500D01*
X239000D02*
X250000Y678500D01*
Y609500D02*
Y678500D01*
Y609500D02*
X265000Y594500D01*
X210000Y698500D02*
X290000D01*
Y283000D02*
Y698500D01*
X210000Y283000D02*
Y698500D01*
Y283000D02*
X290000D01*
D11*
X273000Y637500D02*
X277500Y633000D01*
X273000Y637500D02*
Y651000D01*
X277500Y655500D01*
X273600Y672600D02*
X278500Y677500D01*
X273600Y659400D02*
Y672600D01*
Y659400D02*
X277500Y655500D01*
X216588Y671912D02*
X221000Y667500D01*
X216588Y671912D02*
Y687088D01*
X219000Y689500D01*
X221000Y601500D02*
X225500Y597000D01*
Y584000D02*
Y597000D01*
X221000Y579500D02*
X225500Y584000D01*
X216500Y651000D02*
X221000Y655500D01*
X216500Y638000D02*
Y651000D01*
Y638000D02*
X221000Y633500D01*
X277500Y633000D02*
X282000Y628500D01*
Y605500D02*
Y628500D01*
X277500Y601000D02*
X282000Y605500D01*
X278500Y667500D02*
X285300Y660700D01*
Y586800D02*
Y660700D01*
X277500Y579000D02*
X285300Y586800D01*
X216500Y606000D02*
X221000Y601500D01*
X216500Y606000D02*
Y629000D01*
X221000Y633500D01*
Y655500D02*
Y667500D01*
X259000Y689500D02*
X271000D01*
X275600Y694100D01*
X283500D01*
X285600Y692000D01*
Y674600D02*
Y692000D01*
X278500Y667500D02*
X285600Y674600D01*
D12*
X250000Y290000D02*
D03*
Y302500D02*
D03*
Y338000D02*
D03*
Y374500D02*
D03*
Y411000D02*
D03*
Y448000D02*
D03*
Y484500D02*
D03*
Y521000D02*
D03*
Y557500D02*
D03*
D13*
X281000Y689500D02*
D03*
D14*
X271000D02*
D03*
D15*
X277500Y579000D02*
D03*
Y589000D02*
D03*
Y655500D02*
D03*
Y645500D02*
D03*
Y633000D02*
D03*
Y623000D02*
D03*
Y601000D02*
D03*
Y611000D02*
D03*
X221000Y601500D02*
D03*
Y611500D02*
D03*
Y633500D02*
D03*
Y623500D02*
D03*
Y655500D02*
D03*
Y645500D02*
D03*
Y579500D02*
D03*
Y589500D02*
D03*
Y667500D02*
D03*
Y677500D02*
D03*
X278500D02*
D03*
Y667500D02*
D03*
D16*
X275000Y317500D02*
D03*
X225000Y537500D02*
D03*
D17*
X219000Y689500D02*
D03*
X229000D02*
D03*
X239000D02*
D03*
X249000D02*
D03*
D18*
X259000D02*
D03*
D19*
X265000Y604500D02*
D03*
Y614500D02*
D03*
Y624500D02*
D03*
Y634500D02*
D03*
Y644500D02*
D03*
Y654500D02*
D03*
Y664500D02*
D03*
Y674500D02*
D03*
X235000Y664500D02*
D03*
Y654500D02*
D03*
Y644500D02*
D03*
Y634500D02*
D03*
Y624500D02*
D03*
Y614500D02*
D03*
Y604500D02*
D03*
X265000Y594500D02*
D03*
X235000D02*
D03*
X265000Y584500D02*
D03*
X235000D02*
D03*
D20*
Y674500D02*
D03*
M02*
