G04 Layer_Physical_Order=2*
G04 Layer_Color=16711680*
%FSLAX25Y25*%
%MOIN*%
G70*
G01*
G75*
%ADD10C,0.01000*%
%ADD11C,0.02500*%
%ADD12C,0.05950*%
%ADD13R,0.05950X0.05950*%
G04:AMPARAMS|DCode=14|XSize=55.12mil|YSize=55.12mil|CornerRadius=6.89mil|HoleSize=0mil|Usage=FLASHONLY|Rotation=270.000|XOffset=0mil|YOffset=0mil|HoleType=Round|Shape=RoundedRectangle|*
%AMROUNDEDRECTD14*
21,1,0.05512,0.04134,0,0,270.0*
21,1,0.04134,0.05512,0,0,270.0*
1,1,0.01378,-0.02067,-0.02067*
1,1,0.01378,-0.02067,0.02067*
1,1,0.01378,0.02067,0.02067*
1,1,0.01378,0.02067,-0.02067*
%
%ADD14ROUNDEDRECTD14*%
%ADD15C,0.05000*%
%ADD16C,0.04724*%
%ADD17C,0.05905*%
%ADD18R,0.05905X0.05905*%
%ADD19C,0.05512*%
%ADD20C,0.14300*%
G04:AMPARAMS|DCode=21|XSize=250mil|YSize=60mil|CornerRadius=15mil|HoleSize=0mil|Usage=FLASHONLY|Rotation=0.000|XOffset=0mil|YOffset=0mil|HoleType=Round|Shape=RoundedRectangle|*
%AMROUNDEDRECTD21*
21,1,0.25000,0.03000,0,0,0.0*
21,1,0.22000,0.06000,0,0,0.0*
1,1,0.03000,0.11000,-0.01500*
1,1,0.03000,-0.11000,-0.01500*
1,1,0.03000,-0.11000,0.01500*
1,1,0.03000,0.11000,0.01500*
%
%ADD21ROUNDEDRECTD21*%
D10*
X227500Y594000D02*
X237000D01*
X224500Y591000D02*
X227500Y594000D01*
Y604000D02*
X237000D01*
X224500Y601000D02*
X227500Y604000D01*
Y634000D02*
X237000D01*
X224500Y631000D02*
X227500Y634000D01*
Y624000D02*
X237000D01*
X224500Y621000D02*
X227500Y624000D01*
Y614000D02*
X237000D01*
X224500Y611000D02*
X227500Y614000D01*
X250000Y302500D02*
X276000D01*
X280000Y306500D01*
Y634000D01*
X237000Y604000D02*
X251300Y618300D01*
X269000D01*
X271300Y616000D01*
Y528200D02*
Y616000D01*
X264100Y521000D02*
X271300Y528200D01*
X250000Y521000D02*
X264100D01*
X224500Y618400D02*
Y621000D01*
X220800Y614700D02*
X224500Y618400D01*
X220800Y477200D02*
Y614700D01*
Y477200D02*
X250000Y448000D01*
X224500Y581000D02*
X233200Y589700D01*
X242700D01*
X267000Y614000D01*
X224500Y641500D02*
X226300Y639700D01*
X251300D01*
X267000Y624000D01*
X224500Y652000D02*
X230800Y658300D01*
X261300D01*
X267000Y664000D01*
Y634000D02*
X280000D01*
D11*
X274000Y678000D02*
X279500D01*
X272500Y679500D02*
X274000Y678000D01*
X242500Y679500D02*
X272500D01*
X237000Y674000D02*
X242500Y679500D01*
X280000Y641500D02*
Y661000D01*
X267000Y674000D02*
X280000Y661000D01*
X236500Y690500D02*
X248500D01*
X258500Y700500D01*
X220500Y690500D02*
X236500D01*
X220500Y700500D02*
X236500D01*
X248500D01*
D12*
X278500D02*
D03*
X268500D02*
D03*
X258500D02*
D03*
D13*
X248500D02*
D03*
D14*
X236500D02*
D03*
X220500Y669000D02*
D03*
D15*
X236500Y690500D02*
D03*
D16*
X280000Y641500D02*
D03*
Y634000D02*
D03*
X217000Y641500D02*
D03*
X224500D02*
D03*
X217000Y581000D02*
D03*
X224500D02*
D03*
X217000Y611000D02*
D03*
X224500D02*
D03*
X217000Y621000D02*
D03*
X224500D02*
D03*
X217000Y631000D02*
D03*
X224500D02*
D03*
X217000Y601000D02*
D03*
X224500D02*
D03*
X217000Y591000D02*
D03*
X224500D02*
D03*
Y652000D02*
D03*
Y659500D02*
D03*
X279500Y678000D02*
D03*
Y670500D02*
D03*
X220500Y690500D02*
D03*
Y700500D02*
D03*
D17*
X267000Y604000D02*
D03*
Y614000D02*
D03*
Y624000D02*
D03*
Y634000D02*
D03*
Y644000D02*
D03*
Y654000D02*
D03*
Y664000D02*
D03*
Y674000D02*
D03*
X237000Y664000D02*
D03*
Y654000D02*
D03*
Y644000D02*
D03*
Y634000D02*
D03*
Y624000D02*
D03*
Y614000D02*
D03*
Y604000D02*
D03*
X267000Y594000D02*
D03*
X237000D02*
D03*
X267000Y584000D02*
D03*
X237000D02*
D03*
D18*
Y674000D02*
D03*
D19*
X220500Y679000D02*
D03*
D20*
X250000Y540000D02*
D03*
Y320000D02*
D03*
D21*
Y557500D02*
D03*
Y521000D02*
D03*
Y484500D02*
D03*
Y448000D02*
D03*
Y411000D02*
D03*
Y374500D02*
D03*
Y338000D02*
D03*
Y302500D02*
D03*
Y290000D02*
D03*
M02*
